<mxfile host="app.diagrams.net" agent="Mozilla/5.0 (Windows NT 10.0; Win64; x64) AppleWebKit/537.36 (KHTML, like Gecko) Chrome/132.0.0.0 Safari/537.36 OPR/117.0.0.0" version="26.1.1" pages="2">
  <diagram name="Õpiväljundid" id="HOLbYARwxGNt5G9FzNMO">
    <mxGraphModel dx="740" dy="413" grid="1" gridSize="10" guides="1" tooltips="1" connect="1" arrows="1" fold="1" page="1" pageScale="1" pageWidth="827" pageHeight="1169" math="1" shadow="0">
      <root>
        <mxCell id="0" />
        <mxCell id="1" parent="0" />
        <mxCell id="H3njUC9bQLBFBT5jkG47-1" value="" style="ellipse;html=1;shape=endState;fillColor=#000000;strokeColor=#ff0000;" parent="1" vertex="1">
          <mxGeometry x="370" y="1110" width="30" height="30" as="geometry" />
        </mxCell>
        <mxCell id="H3njUC9bQLBFBT5jkG47-2" value="4" style="swimlane;fontStyle=1;align=center;verticalAlign=middle;childLayout=stackLayout;horizontal=1;startSize=30;horizontalStack=0;resizeParent=0;resizeLast=1;container=0;collapsible=0;rounded=1;arcSize=30;strokeColor=#82b366;fillColor=#d5e8d4;swimlaneFillColor=#ffffc0;dropTarget=0;" parent="1" vertex="1">
          <mxGeometry x="243.75" y="1010" width="282.5" height="70" as="geometry" />
        </mxCell>
        <mxCell id="H3njUC9bQLBFBT5jkG47-3" value="lahendab lihtsamaid reaalelulise kontekstiga planimeetria probleeme" style="text;html=1;strokeColor=none;fillColor=none;align=center;verticalAlign=middle;spacingLeft=4;spacingRight=4;whiteSpace=wrap;overflow=hidden;rotatable=0;fontColor=#000000;" parent="H3njUC9bQLBFBT5jkG47-2" vertex="1">
          <mxGeometry y="30" width="282.5" height="40" as="geometry" />
        </mxCell>
        <mxCell id="H3njUC9bQLBFBT5jkG47-4" value="" style="edgeStyle=orthogonalEdgeStyle;html=1;verticalAlign=bottom;endArrow=open;endSize=8;strokeColor=#ff0000;rounded=0;" parent="1" source="H3njUC9bQLBFBT5jkG47-2" target="H3njUC9bQLBFBT5jkG47-1" edge="1">
          <mxGeometry relative="1" as="geometry">
            <mxPoint x="380" y="980" as="targetPoint" />
          </mxGeometry>
        </mxCell>
        <mxCell id="Rrk2SFUDBp2oYCEs8pPQ-13" style="edgeStyle=orthogonalEdgeStyle;rounded=0;orthogonalLoop=1;jettySize=auto;html=1;" parent="1" source="H3njUC9bQLBFBT5jkG47-17" target="H3njUC9bQLBFBT5jkG47-14" edge="1">
          <mxGeometry relative="1" as="geometry">
            <Array as="points">
              <mxPoint x="440" y="710" />
              <mxPoint x="425" y="710" />
            </Array>
          </mxGeometry>
        </mxCell>
        <mxCell id="H3njUC9bQLBFBT5jkG47-5" value="3" style="swimlane;fontStyle=1;align=center;verticalAlign=middle;childLayout=stackLayout;horizontal=1;startSize=30;horizontalStack=0;resizeParent=0;resizeLast=1;container=0;collapsible=0;rounded=1;arcSize=30;strokeColor=#d6b656;fillColor=#fff2cc;swimlaneFillColor=#ffffc0;dropTarget=0;" parent="1" vertex="1">
          <mxGeometry x="40" y="630" width="140" height="130" as="geometry" />
        </mxCell>
        <mxCell id="H3njUC9bQLBFBT5jkG47-6" value="teisendab lihtsamaid trigonomeetrilisi avaldisi (rakenduvad maksimaalselt 3 erinevat&lt;br/&gt;trigonomeetrilist seost)" style="text;html=1;strokeColor=none;fillColor=none;align=center;verticalAlign=middle;spacingLeft=4;spacingRight=4;whiteSpace=wrap;overflow=hidden;rotatable=0;fontColor=#000000;" parent="H3njUC9bQLBFBT5jkG47-5" vertex="1">
          <mxGeometry y="30" width="140" height="100" as="geometry" />
        </mxCell>
        <mxCell id="H3njUC9bQLBFBT5jkG47-8" value="4" style="swimlane;fontStyle=1;align=center;verticalAlign=middle;childLayout=stackLayout;horizontal=1;startSize=30;horizontalStack=0;resizeParent=0;resizeLast=1;container=0;collapsible=0;rounded=1;arcSize=30;strokeColor=#82b366;fillColor=#d5e8d4;swimlaneFillColor=#ffffc0;dropTarget=0;" parent="1" vertex="1">
          <mxGeometry x="120" y="510" width="280" height="62" as="geometry" />
        </mxCell>
        <mxCell id="H3njUC9bQLBFBT5jkG47-9" value="loeb trigonomeetriliste funktsioonide graafikuid" style="text;html=1;strokeColor=none;fillColor=none;align=center;verticalAlign=middle;spacingLeft=4;spacingRight=4;whiteSpace=wrap;overflow=hidden;rotatable=0;fontColor=#000000;" parent="H3njUC9bQLBFBT5jkG47-8" vertex="1">
          <mxGeometry y="30" width="280" height="32" as="geometry" />
        </mxCell>
        <mxCell id="H3njUC9bQLBFBT5jkG47-11" value="3" style="swimlane;fontStyle=1;align=center;verticalAlign=middle;childLayout=stackLayout;horizontal=1;startSize=30;horizontalStack=0;resizeParent=0;resizeLast=1;container=0;collapsible=0;rounded=1;arcSize=30;strokeColor=#d6b656;fillColor=#fff2cc;swimlaneFillColor=#ffffc0;dropTarget=0;" parent="1" vertex="1">
          <mxGeometry x="470" y="670" width="279" height="70" as="geometry" />
        </mxCell>
        <mxCell id="H3njUC9bQLBFBT5jkG47-12" value="arvutab &lt;a href=&quot;https://youtu.be/5QrQdBS312s&quot;&gt;ringjoone kaare&lt;/a&gt; kui ringjoone osa pikkuse ning ringi sektori kui ringi osa pindala" style="text;html=1;strokeColor=none;fillColor=none;align=center;verticalAlign=middle;spacingLeft=4;spacingRight=4;whiteSpace=wrap;overflow=hidden;rotatable=0;fontColor=#000000;" parent="H3njUC9bQLBFBT5jkG47-11" vertex="1">
          <mxGeometry y="30" width="279" height="40" as="geometry" />
        </mxCell>
        <mxCell id="H3njUC9bQLBFBT5jkG47-14" value="4" style="swimlane;fontStyle=1;align=center;verticalAlign=middle;childLayout=stackLayout;horizontal=1;startSize=30;horizontalStack=0;resizeParent=0;resizeLast=1;container=0;collapsible=0;rounded=1;arcSize=30;strokeColor=#82b366;fillColor=#d5e8d4;swimlaneFillColor=#ffffc0;dropTarget=0;" parent="1" vertex="1">
          <mxGeometry x="320" y="780" width="210" height="80" as="geometry" />
        </mxCell>
        <mxCell id="H3njUC9bQLBFBT5jkG47-15" value="leiab rööpküliku ja hulknurga pindala, tükeldades need sobivalt kolmnurkadeks" style="text;html=1;strokeColor=none;fillColor=none;align=center;verticalAlign=middle;spacingLeft=4;spacingRight=4;whiteSpace=wrap;overflow=hidden;rotatable=0;fontColor=#000000;" parent="H3njUC9bQLBFBT5jkG47-14" vertex="1">
          <mxGeometry y="30" width="210" height="50" as="geometry" />
        </mxCell>
        <mxCell id="H3njUC9bQLBFBT5jkG47-17" value="3" style="swimlane;fontStyle=1;align=center;verticalAlign=middle;childLayout=stackLayout;horizontal=1;startSize=30;horizontalStack=0;resizeParent=0;resizeLast=1;container=0;collapsible=0;rounded=1;arcSize=30;strokeColor=#d6b656;fillColor=#fff2cc;swimlaneFillColor=#ffffc0;dropTarget=0;" parent="1" vertex="1">
          <mxGeometry x="410" y="540" width="300" height="100" as="geometry" />
        </mxCell>
        <mxCell id="H3njUC9bQLBFBT5jkG47-18" value="rakendab trigonomeetriat, siinus- ja koosinusteoreemi ning kolmnurga pindala valemeid&lt;br/&gt;kolmnurga lahendamisel" style="text;html=1;strokeColor=none;fillColor=none;align=center;verticalAlign=middle;spacingLeft=4;spacingRight=4;whiteSpace=wrap;overflow=hidden;rotatable=0;fontColor=#000000;" parent="H3njUC9bQLBFBT5jkG47-17" vertex="1">
          <mxGeometry y="30" width="300" height="70" as="geometry" />
        </mxCell>
        <mxCell id="H3njUC9bQLBFBT5jkG47-20" value="2" style="swimlane;fontStyle=1;align=center;verticalAlign=middle;childLayout=stackLayout;horizontal=1;startSize=30;horizontalStack=0;resizeParent=0;resizeLast=1;container=0;collapsible=0;rounded=1;arcSize=30;strokeColor=#d79b00;fillColor=#ffe6cc;swimlaneFillColor=#ffffc0;dropTarget=0;" parent="1" vertex="1">
          <mxGeometry x="410" y="220" width="380" height="60" as="geometry" />
        </mxCell>
        <mxCell id="H3njUC9bQLBFBT5jkG47-21" value="teisendab kraadimõõdus antud nurga radiaanmõõtu ja vastupidi" style="text;html=1;strokeColor=none;fillColor=none;align=center;verticalAlign=middle;spacingLeft=4;spacingRight=4;whiteSpace=wrap;overflow=hidden;rotatable=0;fontColor=#000000;fontFamily=Helvetica;" parent="H3njUC9bQLBFBT5jkG47-20" vertex="1">
          <mxGeometry y="30" width="380" height="30" as="geometry" />
        </mxCell>
        <mxCell id="H3njUC9bQLBFBT5jkG47-23" value="1" style="swimlane;fontStyle=1;align=center;verticalAlign=middle;childLayout=stackLayout;horizontal=1;startSize=30;horizontalStack=0;resizeParent=0;resizeLast=1;container=0;collapsible=0;rounded=1;arcSize=30;strokeColor=#b85450;fillColor=#f8cecc;swimlaneFillColor=#ffffc0;dropTarget=0;" parent="1" vertex="1">
          <mxGeometry x="175" y="300" width="170" height="80" as="geometry" />
        </mxCell>
        <mxCell id="H3njUC9bQLBFBT5jkG47-24" value="defineerib mis tahes nurga siinuse, koosinuse ja tangensi" style="text;html=1;strokeColor=none;fillColor=none;align=center;verticalAlign=middle;spacingLeft=4;spacingRight=4;whiteSpace=wrap;overflow=hidden;rotatable=0;fontColor=#000000;" parent="H3njUC9bQLBFBT5jkG47-23" vertex="1">
          <mxGeometry y="30" width="170" height="50" as="geometry" />
        </mxCell>
        <mxCell id="H3njUC9bQLBFBT5jkG47-29" value=" leiab hulkade ühendi, ühisosa ja antud hulga osahulga" style="text;html=1;strokeColor=none;fillColor=none;align=center;verticalAlign=middle;spacingLeft=4;spacingRight=4;whiteSpace=wrap;overflow=hidden;rotatable=0;fontColor=#000000;" parent="H3njUC9bQLBFBT5jkG47-23" vertex="1">
          <mxGeometry y="80" width="170" as="geometry" />
        </mxCell>
        <mxCell id="H3njUC9bQLBFBT5jkG47-26" value="" style="ellipse;html=1;shape=startState;fillColor=#000000;strokeColor=#ff0000;" parent="1" vertex="1">
          <mxGeometry x="320" y="20" width="30" height="30" as="geometry" />
        </mxCell>
        <mxCell id="H3njUC9bQLBFBT5jkG47-41" style="edgeStyle=orthogonalEdgeStyle;rounded=0;orthogonalLoop=1;jettySize=auto;html=1;" parent="1" source="H3njUC9bQLBFBT5jkG47-38" target="H3njUC9bQLBFBT5jkG47-23" edge="1">
          <mxGeometry relative="1" as="geometry">
            <Array as="points">
              <mxPoint x="260" y="230" />
              <mxPoint x="260" y="230" />
            </Array>
          </mxGeometry>
        </mxCell>
        <mxCell id="pphFC8Ue03wzv7ntUBVL-11" style="edgeStyle=orthogonalEdgeStyle;rounded=0;orthogonalLoop=1;jettySize=auto;html=1;" parent="1" source="H3njUC9bQLBFBT5jkG47-38" target="H3njUC9bQLBFBT5jkG47-20" edge="1">
          <mxGeometry relative="1" as="geometry">
            <Array as="points">
              <mxPoint x="420" y="195" />
              <mxPoint x="600" y="195" />
            </Array>
          </mxGeometry>
        </mxCell>
        <mxCell id="pphFC8Ue03wzv7ntUBVL-20" style="edgeStyle=orthogonalEdgeStyle;rounded=0;orthogonalLoop=1;jettySize=auto;html=1;" parent="1" source="H3njUC9bQLBFBT5jkG47-38" target="H3njUC9bQLBFBT5jkG47-11" edge="1">
          <mxGeometry relative="1" as="geometry">
            <Array as="points">
              <mxPoint x="400" y="370" />
              <mxPoint x="720" y="370" />
            </Array>
          </mxGeometry>
        </mxCell>
        <mxCell id="H3njUC9bQLBFBT5jkG47-38" value="" style="shape=line;html=1;strokeWidth=6;strokeColor=#ff0000;" parent="1" vertex="1">
          <mxGeometry x="235" y="160" width="200" height="10" as="geometry" />
        </mxCell>
        <mxCell id="H3njUC9bQLBFBT5jkG47-40" style="edgeStyle=orthogonalEdgeStyle;rounded=0;orthogonalLoop=1;jettySize=auto;html=1;entryX=0.5;entryY=0;entryDx=0;entryDy=0;entryPerimeter=0;" parent="1" source="H3njUC9bQLBFBT5jkG47-26" target="H3njUC9bQLBFBT5jkG47-38" edge="1">
          <mxGeometry relative="1" as="geometry" />
        </mxCell>
        <mxCell id="Rrk2SFUDBp2oYCEs8pPQ-1" value="Kitsa matemaatika II kursus" style="text;align=center;fontStyle=1;verticalAlign=middle;spacingLeft=3;spacingRight=3;strokeColor=none;rotatable=0;points=[[0,0.5],[1,0.5]];portConstraint=eastwest;html=1;" parent="1" vertex="1">
          <mxGeometry x="90" y="40" width="80" height="26" as="geometry" />
        </mxCell>
        <mxCell id="Rrk2SFUDBp2oYCEs8pPQ-2" value="tase (punkte)" style="swimlane;fontStyle=1;align=center;verticalAlign=middle;childLayout=stackLayout;horizontal=1;startSize=30;horizontalStack=0;resizeParent=0;resizeLast=1;container=0;fontColor=#000000;collapsible=0;rounded=1;arcSize=30;strokeColor=#ff0000;fillColor=#ffffc0;swimlaneFillColor=#ffffc0;dropTarget=0;" parent="1" vertex="1">
          <mxGeometry x="50" y="90" width="160" height="60" as="geometry" />
        </mxCell>
        <mxCell id="Rrk2SFUDBp2oYCEs8pPQ-3" value="õpiväljund: Õpilane..." style="text;html=1;strokeColor=none;fillColor=none;align=center;verticalAlign=middle;spacingLeft=4;spacingRight=4;whiteSpace=wrap;overflow=hidden;rotatable=0;fontColor=#000000;" parent="Rrk2SFUDBp2oYCEs8pPQ-2" vertex="1">
          <mxGeometry y="30" width="160" height="30" as="geometry" />
        </mxCell>
        <mxCell id="pphFC8Ue03wzv7ntUBVL-6" style="edgeStyle=orthogonalEdgeStyle;rounded=0;orthogonalLoop=1;jettySize=auto;html=1;" parent="1" source="pphFC8Ue03wzv7ntUBVL-5" target="H3njUC9bQLBFBT5jkG47-2" edge="1">
          <mxGeometry relative="1" as="geometry" />
        </mxCell>
        <mxCell id="pphFC8Ue03wzv7ntUBVL-5" value="" style="shape=line;html=1;strokeWidth=6;strokeColor=#ff0000;" parent="1" vertex="1">
          <mxGeometry x="285" y="960" width="200" height="10" as="geometry" />
        </mxCell>
        <mxCell id="pphFC8Ue03wzv7ntUBVL-7" style="edgeStyle=orthogonalEdgeStyle;rounded=0;orthogonalLoop=1;jettySize=auto;html=1;entryX=0.795;entryY=0.4;entryDx=0;entryDy=0;entryPerimeter=0;" parent="1" source="H3njUC9bQLBFBT5jkG47-15" target="pphFC8Ue03wzv7ntUBVL-5" edge="1">
          <mxGeometry relative="1" as="geometry">
            <Array as="points">
              <mxPoint x="444" y="850" />
              <mxPoint x="444" y="850" />
            </Array>
          </mxGeometry>
        </mxCell>
        <mxCell id="pphFC8Ue03wzv7ntUBVL-8" style="edgeStyle=orthogonalEdgeStyle;rounded=0;orthogonalLoop=1;jettySize=auto;html=1;entryX=0.09;entryY=0.1;entryDx=0;entryDy=0;entryPerimeter=0;" parent="1" source="H3njUC9bQLBFBT5jkG47-5" target="pphFC8Ue03wzv7ntUBVL-5" edge="1">
          <mxGeometry relative="1" as="geometry">
            <Array as="points">
              <mxPoint x="150" y="940" />
              <mxPoint x="303" y="940" />
            </Array>
          </mxGeometry>
        </mxCell>
        <mxCell id="pphFC8Ue03wzv7ntUBVL-9" style="edgeStyle=orthogonalEdgeStyle;rounded=0;orthogonalLoop=1;jettySize=auto;html=1;entryX=0.31;entryY=0.3;entryDx=0;entryDy=0;entryPerimeter=0;" parent="1" source="H3njUC9bQLBFBT5jkG47-9" target="pphFC8Ue03wzv7ntUBVL-5" edge="1">
          <mxGeometry relative="1" as="geometry">
            <Array as="points">
              <mxPoint x="230" y="930" />
              <mxPoint x="347" y="930" />
            </Array>
          </mxGeometry>
        </mxCell>
        <mxCell id="pphFC8Ue03wzv7ntUBVL-10" style="edgeStyle=orthogonalEdgeStyle;rounded=0;orthogonalLoop=1;jettySize=auto;html=1;entryX=0.93;entryY=0.2;entryDx=0;entryDy=0;entryPerimeter=0;" parent="1" source="H3njUC9bQLBFBT5jkG47-21" target="pphFC8Ue03wzv7ntUBVL-5" edge="1">
          <mxGeometry relative="1" as="geometry">
            <Array as="points">
              <mxPoint x="760" y="940" />
              <mxPoint x="471" y="940" />
            </Array>
          </mxGeometry>
        </mxCell>
        <mxCell id="pphFC8Ue03wzv7ntUBVL-15" style="edgeStyle=orthogonalEdgeStyle;rounded=0;orthogonalLoop=1;jettySize=auto;html=1;" parent="1" source="pphFC8Ue03wzv7ntUBVL-12" target="H3njUC9bQLBFBT5jkG47-17" edge="1">
          <mxGeometry relative="1" as="geometry">
            <Array as="points">
              <mxPoint x="440" y="490" />
              <mxPoint x="600" y="490" />
            </Array>
          </mxGeometry>
        </mxCell>
        <mxCell id="pphFC8Ue03wzv7ntUBVL-16" style="edgeStyle=orthogonalEdgeStyle;rounded=0;orthogonalLoop=1;jettySize=auto;html=1;" parent="1" source="pphFC8Ue03wzv7ntUBVL-12" target="H3njUC9bQLBFBT5jkG47-8" edge="1">
          <mxGeometry relative="1" as="geometry" />
        </mxCell>
        <mxCell id="pphFC8Ue03wzv7ntUBVL-17" style="edgeStyle=orthogonalEdgeStyle;rounded=0;orthogonalLoop=1;jettySize=auto;html=1;" parent="1" source="pphFC8Ue03wzv7ntUBVL-12" target="H3njUC9bQLBFBT5jkG47-5" edge="1">
          <mxGeometry relative="1" as="geometry">
            <Array as="points">
              <mxPoint x="350" y="470" />
              <mxPoint x="110" y="470" />
            </Array>
          </mxGeometry>
        </mxCell>
        <mxCell id="pphFC8Ue03wzv7ntUBVL-12" value="" style="shape=line;html=1;strokeWidth=6;strokeColor=#ff0000;" parent="1" vertex="1">
          <mxGeometry x="270" y="440" width="200" height="10" as="geometry" />
        </mxCell>
        <mxCell id="pphFC8Ue03wzv7ntUBVL-18" style="edgeStyle=orthogonalEdgeStyle;rounded=0;orthogonalLoop=1;jettySize=auto;html=1;entryX=0.455;entryY=0.6;entryDx=0;entryDy=0;entryPerimeter=0;" parent="1" source="H3njUC9bQLBFBT5jkG47-24" target="pphFC8Ue03wzv7ntUBVL-12" edge="1">
          <mxGeometry relative="1" as="geometry" />
        </mxCell>
        <mxCell id="pphFC8Ue03wzv7ntUBVL-21" style="edgeStyle=orthogonalEdgeStyle;rounded=0;orthogonalLoop=1;jettySize=auto;html=1;entryX=0.86;entryY=0.4;entryDx=0;entryDy=0;entryPerimeter=0;" parent="1" source="H3njUC9bQLBFBT5jkG47-12" target="pphFC8Ue03wzv7ntUBVL-5" edge="1">
          <mxGeometry relative="1" as="geometry">
            <Array as="points">
              <mxPoint x="640" y="910" />
              <mxPoint x="457" y="910" />
            </Array>
          </mxGeometry>
        </mxCell>
        <mxCell id="zeGqMkPXim4bhpI9RW-y-1" value="Composite State" style="swimlane;fontStyle=1;align=center;verticalAlign=middle;childLayout=stackLayout;horizontal=1;startSize=30;horizontalStack=0;resizeParent=0;resizeLast=1;container=0;fontColor=#000000;collapsible=0;rounded=1;arcSize=30;strokeColor=#ff0000;fillColor=#ffffc0;swimlaneFillColor=#ffffc0;dropTarget=0;" vertex="1" parent="1">
          <mxGeometry x="20" y="180" width="160" height="60" as="geometry" />
        </mxCell>
        <mxCell id="zeGqMkPXim4bhpI9RW-y-2" value="nurk" style="text;html=1;strokeColor=none;fillColor=none;align=center;verticalAlign=middle;spacingLeft=4;spacingRight=4;whiteSpace=wrap;overflow=hidden;rotatable=0;fontColor=#000000;" vertex="1" parent="zeGqMkPXim4bhpI9RW-y-1">
          <mxGeometry y="30" width="160" height="30" as="geometry" />
        </mxCell>
        <mxCell id="zeGqMkPXim4bhpI9RW-y-3" value="" style="edgeStyle=orthogonalEdgeStyle;html=1;verticalAlign=bottom;endArrow=open;endSize=8;strokeColor=#ff0000;rounded=0;" edge="1" source="zeGqMkPXim4bhpI9RW-y-1" parent="1">
          <mxGeometry relative="1" as="geometry">
            <mxPoint x="100" y="300" as="targetPoint" />
          </mxGeometry>
        </mxCell>
        <mxCell id="zeGqMkPXim4bhpI9RW-y-4" value="Composite State" style="swimlane;fontStyle=1;align=center;verticalAlign=middle;childLayout=stackLayout;horizontal=1;startSize=30;horizontalStack=0;resizeParent=0;resizeLast=1;container=0;fontColor=#000000;collapsible=0;rounded=1;arcSize=30;strokeColor=#ff0000;fillColor=#ffffc0;swimlaneFillColor=#ffffc0;dropTarget=0;" vertex="1" parent="1">
          <mxGeometry x="270" y="650" width="160" height="60" as="geometry" />
        </mxCell>
        <mxCell id="zeGqMkPXim4bhpI9RW-y-5" value="&lt;a href=&quot;https://youtu.be/ShlA80K-1tk&quot;&gt;kesknurk ja piirdenurk&lt;/a&gt;" style="text;html=1;strokeColor=none;fillColor=none;align=center;verticalAlign=middle;spacingLeft=4;spacingRight=4;whiteSpace=wrap;overflow=hidden;rotatable=0;fontColor=#000000;" vertex="1" parent="zeGqMkPXim4bhpI9RW-y-4">
          <mxGeometry y="30" width="160" height="30" as="geometry" />
        </mxCell>
        <mxCell id="zeGqMkPXim4bhpI9RW-y-6" value="" style="edgeStyle=orthogonalEdgeStyle;html=1;verticalAlign=bottom;endArrow=open;endSize=8;strokeColor=#ff0000;rounded=0;" edge="1" source="zeGqMkPXim4bhpI9RW-y-4" parent="1">
          <mxGeometry relative="1" as="geometry">
            <mxPoint x="350" y="770" as="targetPoint" />
          </mxGeometry>
        </mxCell>
      </root>
    </mxGraphModel>
  </diagram>
  <diagram id="G3zDwb-mi2738iLz7LDv" name="Hindamine">
    <mxGraphModel dx="1380" dy="907" grid="1" gridSize="10" guides="1" tooltips="1" connect="1" arrows="1" fold="1" page="1" pageScale="1" pageWidth="850" pageHeight="1100" math="0" shadow="0">
      <root>
        <mxCell id="0" />
        <mxCell id="1" parent="0" />
        <mxCell id="I_-PW9f_ODD57kMSkVxC-2" value="&lt;p data-pm-slice=&quot;1 1 []&quot;&gt;Hindan iga õpiväljundi saavutamist, mida kontrollin lühitestiga, mis võib sisaldada ülesandeid eri õpiväljundite kohta. Mitmes testis võib olla ülesandeid sama õpiväljundi kohta. See tähendab, et õpilane võib saada sama õpiväljundi kohta mitu hinnet. Kõrgem hinne näitab kõrgemat oskustaset. Arvesse läheb suurim hinne, mis näitab, kuhu õpilane on jõudnud. Kui see hinne on suurem kui eelmine hinne, siis on õpilane tõenäoliselt õppinud. Kui õpilane on ühe ja sama õpiväljundi saavutatuse kohta saanud mitu hinnet, nt 4, 2, 3, 1, siis kehtima jääb hinne 4, kuna see on suurim&amp;nbsp;hinne. Lühitesti sooritades on keelatud kasutada mis tahes info hankimise abivahendeid, välja arvatud enda või kaasõpilase aju. Matemaatikas tuleb lõpuks sooritada eksam ja valmistume selleks niimoodi. Kui õpilane siiski vähemalt puudutab keelatud abivahendit, siis ma õpilase sooritust ei hinda.&lt;/p&gt;&lt;p&gt;&lt;/p&gt;&lt;p&gt;Kui mingi õpiväljundi hinne on 1 või 2, siis saab õpilane minult kaheosalise kooliväliseks lahendamiseks mõeldud ülesannete kogumi, milles tuleb täielikult lahendada õpiväljundiga seotud eestikeelsete sõnade ristsõna ja vähemalt 50 % ulatuses teemakohased matemaatika tervikülesanded korrektselt. Ristsõna lahendamise eesmärk on oskus osata seotud sõnavara eesti keeles, et mõistaksime üksteist paremini. Kui korrektselt lahendatud matemaatikaülesandeid on vähem kui 50 % õpilasele määratud tervikülesannete arvust, siis saab õpilane uued matemaatikaülesanded, mida on sedapuhku kahekordne arv võrreldes eelmise ülesannete arvuga, mis tuleb lahendada samal tingimusel. Kui ka seekord normi ei saavutata, saab õpilane omakorda kahekordse arvu uusi ülesandeid samal tingimusel lahendamiseks ning see protsess võib kesta seni, kuni kestab kursus, mille lõppedes fikseerime kõik hinded lõplikuks kursusehindeks. Mida rohkem õpilane harjutab, seda paremini selgeks teema saab.&lt;/p&gt;&lt;p&gt;&lt;/p&gt;&lt;p&gt;Kursusel on kaheksa õpiväljundit, mille kaalud on esitatud juuresoleval skeemil. Kui testis on boonusülesanne ja see on korrektselt lahendatud, siis sellise testi hinne kaalutakse ühe kaalu võrra suurema kaaluga - eKoolis kaks viit.&lt;/p&gt;&lt;p&gt;&lt;/p&gt;&lt;p&gt;Kui õpilane saaks testisoorituse hindeks 5 või kaks viit, siis on võimalus, et ta kutsutakse järgmises õppesessioonis, kui ta on kohal, vastavalt esimese kümne või viie minuti kestel tahvlile lahendama sarnast ülesannet ja kaasõpilastele valjuhäälselt selgitama ilma nimetatud keelatud abivahenditeta. Seeläbi kontrollime õpilase tegelikke oskusi ja see on võimalus õpilasel oma mõtteid selgitada. Kui õpilane seeläbi näitab, et ta päriselt oskab, siis kaalutakse ta maksimaalne hinne senisest kaalust ühe võrra suurema kaaluga, mistõttu eKoolis 5 / 4 tähendab hoopis tavakaalust kahe kaalu võrra suuremat kaalu. Muul juhul peab õpilane edaspidi samasuguse ajapiiranguga õppesessioonidevahelise kuni 20-min pausi kestel minu antud paberilehele lahendama sarnase ülesande. Iga sellise pausi kestel toimub lahendamine, kuni on tõendatud oskus. Kui õpilane keeldub tahvlile lahendamast, siis ta lahendab samamoodi minu antud paberilehele nimetatud pausi kestel. See reegliosa on sisse seatud seetõttu, et vahel ma kahtlustan keelatud abivahendi kasutamist, ning et vältida olukorda, milles õpilane saaks seetõttu maksimaalse hinde ja eksamil siiski hakkama ei saaks.&lt;/p&gt;&lt;p&gt;&lt;/p&gt;&lt;p&gt;&lt;span style=&quot;background-color: initial;&quot;&gt;Eraldi hinnete parandamist me ei tee. Iga lühitest võib olla osaline või täielik eelneva testi järelvastamine. Kuni kursuse lõpuni on võimalik tõendada õpiväljundi saavutamist, kui vastav temaatika on testis. Muul juhul saab õpilane endale vähemalt 3 kujundada vastava õpiväljundi kohta nimetatud koolivälise ülesande sooritamise kaudu.&lt;/span&gt;&lt;br&gt;&lt;/p&gt;" style="text;whiteSpace=wrap;html=1;fontFamily=Times New Roman;" parent="1" vertex="1">
          <mxGeometry x="268" y="40" width="315" height="1040" as="geometry" />
        </mxCell>
      </root>
    </mxGraphModel>
  </diagram>
</mxfile>
